<svg xmlns="http://www.w3.org/2000/svg" xmlns:xlink="http://www.w3.org/1999/xlink" width="153.35" height="60" viewBox="0 0 153.35 60">
  <defs>
    <clipPath id="clip-path">
      <rect id="Rectangle_5516" data-name="Rectangle 5516" width="153.35" height="60" fill="none"/>
    </clipPath>
  </defs>
  <g id="Group_18782" data-name="Group 18782" clip-path="url(#clip-path)">
    <path id="Path_8251" data-name="Path 8251" d="M35.582.828c0-.245-.051-.491-.088-.828a13.846,13.846,0,0,0-3.863,3.231,15.358,15.358,0,0,0-3.717,10.22q.021,17.242,0,34.484a11.936,11.936,0,0,1-.157,2.112,8.611,8.611,0,0,1-2.662,4.845L5.23,42.834a7.838,7.838,0,0,1,1.543-3.171A13.133,13.133,0,0,1,10.641,36.3c1.55-.886,3.117-1.743,4.671-2.623a13.667,13.667,0,0,0,7.038-11.838c-.453.235-.747.379-1.033.539-4.85,2.716-9.688,5.455-14.553,8.144a12.313,12.313,0,0,0-6.448,8.6c-.636,3.035-.4,5.911,1.562,8.453a15.5,15.5,0,0,0,4.108,3.707c2.947,1.831,5.916,3.631,8.922,5.364A41.145,41.145,0,0,0,19.7,59.026,10.586,10.586,0,0,0,30.37,57.994c3.144-2.2,5.175-5.2,5.19-9.131.06-16.012.025-32.023.022-48.035" transform="translate(0)" fill="#2d3691"/>
    <path id="Path_8252" data-name="Path 8252" d="M.459,98.014c0,.2.039.407.08.8.447-.769.8-1.341,1.118-1.931a10.707,10.707,0,0,1,3.606-3.881c.731-.48,1.471-.949,2.231-1.38,2.722-1.544,5.467-3.048,8.181-4.606a13.732,13.732,0,0,0,6.643-8.645,11.853,11.853,0,0,0,.418-3.315c-.283.117-.409.155-.52.218C16.925,78.292,11.6,81.256,6.355,84.348A11.4,11.4,0,0,0,.822,92.083a28.619,28.619,0,0,0-.362,5.932" transform="translate(-0.413 -67.468)" fill="#2d3691"/>
    <path id="Path_8253" data-name="Path 8253" d="M488.717,160.957c-2.619-.15-5.252-.108-7.877-.076-1.423.017-2.06.71-2.183,2.129-.023.268-.012.539-.012.808q0,3.688,0,7.377c0,2.459-.008,4.918.007,7.376a10.569,10.569,0,0,0,.146,1.5,1.644,1.644,0,0,0,1.4,1.4,3.452,3.452,0,0,0,.8.086c2.492-.011,4.988.055,7.475-.071a7.467,7.467,0,0,0,7.016-5.073,14.09,14.09,0,0,0,.009-10.372,7.376,7.376,0,0,0-6.783-5.089m2.718,14.4a4.167,4.167,0,0,1-3.8,2.882c-1.539.094-3.089.019-4.624.019-.228-.732-.288-12.77-.055-14.139a30.126,30.126,0,0,1,5.175.208,4.234,4.234,0,0,1,3.446,2.921,11.638,11.638,0,0,1-.141,8.11" transform="translate(-430.237 -144.583)" fill="#1a1a1a"/>
    <path id="Path_8254" data-name="Path 8254" d="M921.044,177.451a1.625,1.625,0,0,0-.322-2.1c-.265-.258-.556-.489-.841-.727q-.922-.771-1.848-1.536c.421-.9.843-1.7,1.176-2.54a6.642,6.642,0,0,0,.444-1.75,1.536,1.536,0,0,0-1.15-1.59,1.409,1.409,0,0,0-1.737.667c-.312.515-.535,1.085-.8,1.63l-.586,1.217-3.5-4.074c.358-.249.642-.425.9-.631.684-.544,1.391-1.066,2.027-1.663a3.642,3.642,0,0,0,1.146-2.305,4.283,4.283,0,0,0-2.6-4.585,7.187,7.187,0,0,0-6.527.194,4.227,4.227,0,0,0-2.309,3.47,4.477,4.477,0,0,0,.711,2.891c.42.682.875,1.343,1.333,2.04-.789.521-1.562.992-2.292,1.524a5.692,5.692,0,0,0-2.241,2.916,5.549,5.549,0,0,0,3.1,6.9,9.3,9.3,0,0,0,9.672-.906c.3-.209.58-.433.891-.667.755.592,1.458,1.167,2.188,1.705a4.545,4.545,0,0,0,1.131.649,1.71,1.71,0,0,0,2.028-.721m-12.163-17.63a2.5,2.5,0,0,1,2.839-.175,2.005,2.005,0,0,1,.383,3.2,22.369,22.369,0,0,1-2.063,1.645,8.394,8.394,0,0,1-1.739-2.332,1.852,1.852,0,0,1,.579-2.341m-.93,15.407c-2.252-.868-3.359-3.791-1.168-5.672.5-.432,1.064-.8,1.641-1.221l4.627,5.141a4.713,4.713,0,0,1-5.1,1.753" transform="translate(-810.562 -140.915)" fill="#1a1a1a"/>
    <path id="Path_8255" data-name="Path 8255" d="M1344.433,178.486a1.913,1.913,0,0,0,1.291-2.236,9.111,9.111,0,0,0-.543-1.727q-2.97-7.4-5.967-14.8c-.151-.373-.344-.73-.524-1.091a2.98,2.98,0,0,0-5.207.031c-.221.453-.433.913-.62,1.381-.673,1.689-1.331,3.383-2,5.074-1.284,3.257-2.581,6.509-3.844,9.774a6.435,6.435,0,0,0-.451,1.845,1.884,1.884,0,0,0,1.5,1.794,1.647,1.647,0,0,0,2.036-.9,21.048,21.048,0,0,0,.836-1.946c.31-.778.6-1.566.893-2.355h8.532c.2.516.367.989.558,1.453.372.9.714,1.82,1.145,2.693a1.83,1.83,0,0,0,2.363,1m-11.46-8.411,2.953-8.225.255,0,3.012,8.228Z" transform="translate(-1192.413 -141.229)" fill="#1a1a1a"/>
    <path id="Path_8256" data-name="Path 8256" d="M722.315,411.705v4.332a1.355,1.355,0,0,1-.654-.552c-.709-1.106-1.417-2.213-2.108-3.33-.234-.378-.476-.66-1.025-.434v6.13h.654c.226-1.435-.071-2.87.2-4.457.309.448.5.717.685,1,.657,1.019,1.317,2.037,1.958,3.066a.7.7,0,0,0,1.073.306c0-1.878.01-3.795-.007-5.711,0-.54-.366-.416-.779-.346" transform="translate(-645.863 -370.011)" fill="#1a1a1a"/>
    <path id="Path_8257" data-name="Path 8257" d="M849.1,414.413c-.366-.11-.63-.122-.7.322-.049.314-.147.621-.282,1.168a25.441,25.441,0,0,1-1.751-2.069,2.129,2.129,0,0,1-.254-1.243.889.889,0,0,1,.537-.617,1.482,1.482,0,0,1,.832.179c.1.038.157.209.216.328.213.429.5.348.811.161-.187-1.2-.792-1.656-1.943-1.505a1.572,1.572,0,0,0-1.346,1.91c.046.36.155.711.227,1.029-.9.949-1.1,1.861-.61,2.674a2.072,2.072,0,0,0,2.542.623c.458-.158.846-.318,1.3.023.145.108.44.017.786.017l-.716-.978c.163-.667.568-1.3.352-2.021m-3.5,1.955c-.382-.5-.277-.972.414-1.575l1.562,1.627c-.9.5-1.585.459-1.976-.052" transform="translate(-759.163 -369.534)" fill="#1a1a1a"/>
    <path id="Path_8258" data-name="Path 8258" d="M483.485,411.835a21.778,21.778,0,0,0-2.611-.021v6.2c.847,0,1.647.054,2.437-.013a1.9,1.9,0,0,0,1.871-1.9,15.538,15.538,0,0,0,0-2.421,1.863,1.863,0,0,0-1.694-1.851m.841,4.107a1.245,1.245,0,0,1-1.337,1.314c-.4.024-.795,0-1.33,0-.052-1.592-.04-3.105-.007-4.651.341-.034.567-.074.794-.078,1.452-.023,1.882.385,1.9,1.8.006.536.019,1.073-.019,1.607" transform="translate(-432.243 -370.139)" fill="#1a1a1a"/>
    <path id="Path_8259" data-name="Path 8259" d="M1151.827,411.14c-1.187-.077-2.129.433-2.278,1.5a12.507,12.507,0,0,0,0,3.382,1.947,1.947,0,0,0,2.177,1.537,2.056,2.056,0,0,0,2.01-1.775c.071-.461.06-.935.086-1.392-.027-.515-.014-1.022-.087-1.517a1.956,1.956,0,0,0-1.911-1.735m1.118,4.345a1.312,1.312,0,0,1-1.336,1.252,1.268,1.268,0,0,1-1.326-1.246,16.9,16.9,0,0,1,0-2.32,1.235,1.235,0,0,1,1.319-1.239,1.289,1.289,0,0,1,1.342,1.232,11.153,11.153,0,0,1,.008,1.211,9.9,9.9,0,0,1-.006,1.11" transform="translate(-1033.192 -369.555)" fill="#1a1a1a"/>
    <path id="Path_8260" data-name="Path 8260" d="M544.218,411.128a2,2,0,0,0-1.928,1.843,11.431,11.431,0,0,0-.008,1.306h0a11.728,11.728,0,0,0,.009,1.406,2.08,2.08,0,0,0,2.042,1.864A1.948,1.948,0,0,0,546.507,416a11.768,11.768,0,0,0-.006-3.38c-.168-1.093-1.083-1.574-2.283-1.494m1.536,4.46a1.228,1.228,0,0,1-1.217,1.131,1.167,1.167,0,0,1-1.344-.964,12.812,12.812,0,0,1,.01-2.9,1.145,1.145,0,0,1,1.356-.936,1.229,1.229,0,0,1,1.2,1.147,11.064,11.064,0,0,1,.01,1.311h0a9.319,9.319,0,0,1-.01,1.209" transform="translate(-487.426 -369.543)" fill="#1a1a1a"/>
    <path id="Path_8261" data-name="Path 8261" d="M662.752,413.034a2.082,2.082,0,0,0,.078-.368,1.452,1.452,0,0,0-.063-.3h-3.9v6.151h3.917v-.745h-3.031v-1.925c.77,0,1.44-.006,2.111,0,.464.006.6-.211.432-.768h-2.543v-2.048Z" transform="translate(-592.238 -370.664)" fill="#1a1a1a"/>
    <path id="Path_8262" data-name="Path 8262" d="M1420.216,413.006a2.076,2.076,0,0,0,.1-.386,1.47,1.47,0,0,0-.067-.313h-3.88v6.2c1.355.007,2.639.055,3.945-.024-.132-.72-.132-.715-.653-.75a10.5,10.5,0,0,1-2.468-.121v-1.822c.735,0,1.4,0,2.066,0,.509,0,.645-.225.427-.761h-2.5v-2.027Z" transform="translate(-1273.131 -370.61)" fill="#1a1a1a"/>
    <path id="Path_8263" data-name="Path 8263" d="M1300.569,412.118c-.1-.274-.151-.594-.57-.592s-.468.316-.571.593q-.874,2.36-1.741,4.723c-.1.275-.18.558-.3.937.281,0,.575.077.641-.013a14.424,14.424,0,0,0,.779-1.305c.494,0,1,.029,1.495-.007.672-.048,1.184.065,1.324.855.092.517.447.6.939.4a3.816,3.816,0,0,0-.109-.5q-.937-2.552-1.886-5.1m-1.578,3.475.953-2.835a13.574,13.574,0,0,1,1.019,2.835Z" transform="translate(-1166.181 -369.909)" fill="#1a1a1a"/>
    <path id="Path_8264" data-name="Path 8264" d="M969.171,412.3a.729.729,0,0,0-.472-.405.656.656,0,0,0-.512.342c-.728,1.911-1.425,3.834-2.141,5.784,1.226.438.886-.852,1.475-1.191a9.834,9.834,0,0,1,2.4.041c.426.511.219,1.509,1.376,1.17l-1.523-4.14c-.2-.536-.371-1.082-.6-1.6m-1.52,3.613.954-2.769a11.574,11.574,0,0,1,1.036,2.769Z" transform="translate(-868.351 -370.239)" fill="#1a1a1a"/>
    <path id="Path_8265" data-name="Path 8265" d="M1031.992,414.032c-.477-.156-.98-.229-1.461-.375-.615-.187-.84-.5-.781-1a.915.915,0,0,1,.969-.843,3.868,3.868,0,0,1,1.46.236c.542.208.634-.053.743-.454a3.06,3.06,0,0,0-2.712-.493,1.658,1.658,0,0,0-1.321,1.688,1.53,1.53,0,0,0,1.324,1.643c.357.093.725.142,1.084.228.768.183,1.061.478,1.034,1.019s-.4.869-1.112.954a2.546,2.546,0,0,1-.9-.049c-.415-.1-.813-.277-1.256-.434l-.4.49a3.508,3.508,0,0,0,3.319.613,1.7,1.7,0,0,0,1.207-1.678,1.509,1.509,0,0,0-1.2-1.544" transform="translate(-924.636 -369.427)" fill="#1a1a1a"/>
    <path id="Path_8266" data-name="Path 8266" d="M1475.046,414.1a16.788,16.788,0,0,1-1.643-.459,1.009,1.009,0,0,1-.548-.732,1.3,1.3,0,0,1,.529-.865,1.506,1.506,0,0,1,.963-.166,10.153,10.153,0,0,1,1.394.356l.276-.554a2.972,2.972,0,0,0-2.35-.557,1.685,1.685,0,0,0-1.652,1.594c-.082,1.035.33,1.561,1.439,1.832.456.111.919.2,1.366.337a.815.815,0,0,1,.628.817.832.832,0,0,1-.675.887,4.212,4.212,0,0,1-1.381.068,6.473,6.473,0,0,1-1.239-.423l-.406.551a3.635,3.635,0,0,0,3.275.57,1.566,1.566,0,0,0,1.222-1.434,1.509,1.509,0,0,0-1.2-1.82" transform="translate(-1322.91 -369.517)" fill="#1a1a1a"/>
    <path id="Path_8267" data-name="Path 8267" d="M1090.948,414.016c-.422-.11-.857-.175-1.273-.3a.846.846,0,0,1-.689-.878.916.916,0,0,1,.717-.873,2.171,2.171,0,0,1,.894-.073,11.058,11.058,0,0,1,1.294.365l.3-.549a2.91,2.91,0,0,0-2.339-.574,1.684,1.684,0,0,0-1.674,1.677c-.045.994.352,1.482,1.421,1.747a7.716,7.716,0,0,1,1.451.39,1.229,1.229,0,0,1,.543.754.714.714,0,0,1-.543.857,4.328,4.328,0,0,1-1.474.115,5.828,5.828,0,0,1-1.248-.424l-.4.5a3.467,3.467,0,0,0,2.944.691c1.042-.235,1.519-.76,1.541-1.694.022-.966-.381-1.446-1.473-1.731" transform="translate(-977.913 -369.523)" fill="#1a1a1a"/>
    <path id="Path_8268" data-name="Path 8268" d="M1213.114,412a1.268,1.268,0,0,1,1.363.423,1.486,1.486,0,0,1,.178.243c.218.375.524.35.863.206a1.93,1.93,0,0,0-2.011-1.707,1.861,1.861,0,0,0-2.091,1.622,12.356,12.356,0,0,0,.011,3.193,1.924,1.924,0,0,0,2.025,1.612,2.041,2.041,0,0,0,2.051-1.706c-.461-.218-.72,0-.992.368a1.3,1.3,0,0,1-2.337-.758c-.033-.77-.032-1.545.005-2.315a1.223,1.223,0,0,1,.933-1.183" transform="translate(-1088.818 -369.581)" fill="#1a1a1a"/>
    <path id="Path_8269" data-name="Path 8269" d="M602.339,412.1c-.371.73-.724,1.47-1.175,2.391-.456-.938-.822-1.653-1.153-2.384-.219-.485-.526-.655-1.1-.391.5.968,1.023,1.906,1.462,2.883a5.575,5.575,0,0,1,.378,1.536c.074.552.055,1.116.075,1.639.455.122.734.1.761-.336a5.026,5.026,0,0,0,.006-.808,4.021,4.021,0,0,1,.6-2.5c.455-.78.829-1.608,1.251-2.437-.827-.1-.837-.1-1.1.407" transform="translate(-538.339 -369.965)" fill="#1a1a1a"/>
    <path id="Path_8270" data-name="Path 8270" d="M1356.4,411.491c.033.316.052.5.073.7l1.745.1v5.344c.635.206.773-.05.769-.516-.009-1.277-.006-2.554,0-3.831,0-.324.036-.648.057-1l1.7-.119v-.7c-1.459-.014-2.879-.041-4.348.018" transform="translate(-1219.23 -369.844)" fill="#1a1a1a"/>
    <path id="Path_8271" data-name="Path 8271" d="M1273.229,411.716v6.051c.5.223.778.108.781-.41.007-1.751.012-3.5-.006-5.255-.006-.565-.357-.531-.775-.386" transform="translate(-1144.467 -369.998)" fill="#1a1a1a"/>
  </g>
</svg>
