<svg xmlns="http://www.w3.org/2000/svg" xmlns:xlink="http://www.w3.org/1999/xlink" width="200" height="78.253" viewBox="0 0 200 78.253">
  <defs>
    <clipPath id="clip-path">
      <rect id="Rectangle_5516" data-name="Rectangle 5516" width="200" height="78.253" fill="#fff"/>
    </clipPath>
  </defs>
  <g id="Group_18782" data-name="Group 18782" clip-path="url(#clip-path)">
    <path id="Path_8251" data-name="Path 8251" d="M46.406,1.08c0-.32-.066-.64-.114-1.08a18.058,18.058,0,0,0-5.038,4.214,20.029,20.029,0,0,0-4.847,13.329q.027,22.487,0,44.975a15.568,15.568,0,0,1-.2,2.754,11.23,11.23,0,0,1-3.471,6.318L6.822,55.864a10.222,10.222,0,0,1,2.013-4.136,17.128,17.128,0,0,1,5.044-4.385c2.022-1.156,4.065-2.274,6.091-3.421a17.824,17.824,0,0,0,9.178-15.439c-.59.307-.975.494-1.347.7C21.475,32.728,15.166,36.3,8.82,39.808A16.059,16.059,0,0,0,.41,51.019c-.83,3.959-.518,7.71,2.038,11.024a20.211,20.211,0,0,0,5.357,4.834c3.844,2.388,7.716,4.736,11.636,7a53.661,53.661,0,0,0,6.248,3.108,13.807,13.807,0,0,0,13.919-1.345c4.1-2.871,6.749-6.779,6.768-11.908.078-20.882.033-41.765.028-62.648" transform="translate(0)" fill="#fff"/>
    <path id="Path_8252" data-name="Path 8252" d="M.459,105c0,.266.051.531.1,1.046.583-1,1.041-1.749,1.458-2.518a13.964,13.964,0,0,1,4.7-5.061c.953-.626,1.919-1.237,2.91-1.8,3.55-2.013,7.13-3.976,10.669-6.007a17.909,17.909,0,0,0,8.664-11.275,15.458,15.458,0,0,0,.545-4.323c-.369.153-.534.2-.679.284-6.9,3.932-13.843,7.8-20.686,11.83A14.865,14.865,0,0,0,.932,97.261,37.325,37.325,0,0,0,.459,105" transform="translate(-0.399 -65.159)" fill="#fff"/>
    <path id="Path_8253" data-name="Path 8253" d="M491.782,160.99c-3.416-.2-6.849-.141-10.274-.1-1.856.023-2.686.926-2.847,2.777-.03.349-.016.7-.016,1.054q0,4.81,0,9.621c0,3.207-.01,6.414.009,9.62a13.779,13.779,0,0,0,.191,1.96,2.145,2.145,0,0,0,1.828,1.829,4.5,4.5,0,0,0,1.046.113c3.25-.015,6.506.071,9.749-.092a9.739,9.739,0,0,0,9.151-6.617,18.377,18.377,0,0,0,.011-13.527,9.62,9.62,0,0,0-8.847-6.637m3.545,18.786a5.434,5.434,0,0,1-4.959,3.758c-2.007.123-4.028.025-6.03.025-.3-.955-.376-16.655-.071-18.441a39.29,39.29,0,0,1,6.75.272,5.522,5.522,0,0,1,4.495,3.809,15.178,15.178,0,0,1-.184,10.577" transform="translate(-415.512 -139.635)" fill="#fff"/>
    <path id="Path_8254" data-name="Path 8254" d="M926.911,183.742a2.119,2.119,0,0,0-.419-2.744c-.346-.336-.726-.638-1.1-.948q-1.2-1.005-2.411-2c.549-1.171,1.1-2.218,1.534-3.312a8.661,8.661,0,0,0,.579-2.282,2,2,0,0,0-1.5-2.074,1.838,1.838,0,0,0-2.266.87c-.407.672-.7,1.415-1.04,2.126l-.764,1.587-4.569-5.313c.467-.324.837-.554,1.176-.823.893-.71,1.815-1.39,2.644-2.169a4.75,4.75,0,0,0,1.494-3.006,5.586,5.586,0,0,0-3.388-5.98,9.373,9.373,0,0,0-8.513.254,5.513,5.513,0,0,0-3.012,4.526,5.839,5.839,0,0,0,.928,3.77c.548.89,1.142,1.751,1.738,2.661-1.029.68-2.038,1.294-2.989,1.988a7.423,7.423,0,0,0-2.922,3.8,7.236,7.236,0,0,0,4.044,8.993,12.133,12.133,0,0,0,12.615-1.182c.385-.272.756-.565,1.163-.87.985.772,1.9,1.522,2.854,2.224a5.928,5.928,0,0,0,1.475.847,2.23,2.23,0,0,0,2.644-.941m-15.863-22.994a3.258,3.258,0,0,1,3.7-.228,2.615,2.615,0,0,1,.5,4.178,29.167,29.167,0,0,1-2.69,2.145,10.948,10.948,0,0,1-2.268-3.042,2.415,2.415,0,0,1,.755-3.053m-1.213,20.094c-2.937-1.132-4.38-4.944-1.523-7.4.656-.563,1.388-1.037,2.14-1.593l6.035,6.7a6.146,6.146,0,0,1-6.651,2.286" transform="translate(-782.82 -136.092)" fill="#fff"/>
    <path id="Path_8255" data-name="Path 8255" d="M1349.868,184.986a2.5,2.5,0,0,0,1.684-2.916,11.878,11.878,0,0,0-.708-2.253q-3.874-9.657-7.782-19.3c-.2-.487-.448-.952-.683-1.423a3.886,3.886,0,0,0-6.791.041c-.289.591-.565,1.191-.808,1.8-.877,2.2-1.736,4.412-2.605,6.618-1.674,4.248-3.366,8.489-5.013,12.748a8.393,8.393,0,0,0-.589,2.406,2.458,2.458,0,0,0,1.954,2.34,2.148,2.148,0,0,0,2.655-1.167,27.431,27.431,0,0,0,1.09-2.538c.4-1.015.776-2.042,1.165-3.072h11.127c.257.673.478,1.289.728,1.894.485,1.176.931,2.373,1.493,3.512a2.386,2.386,0,0,0,3.082,1.31m-14.946-10.97,3.851-10.727.333,0,3.929,10.731Z" transform="translate(-1151.601 -136.395)" fill="#fff"/>
    <path id="Path_8256" data-name="Path 8256" d="M723.467,411.725v5.65a1.768,1.768,0,0,1-.853-.719c-.925-1.443-1.849-2.886-2.749-4.344-.3-.493-.621-.86-1.336-.566v7.994h.852c.295-1.871-.093-3.743.264-5.813.4.584.659.935.893,1.3.857,1.329,1.717,2.657,2.554,4a.914.914,0,0,0,1.4.4c0-2.45.014-4.949-.009-7.449-.006-.7-.477-.542-1.016-.451" transform="translate(-623.758 -357.348)" fill="#fff"/>
    <path id="Path_8257" data-name="Path 8257" d="M850.474,415.418c-.477-.144-.821-.159-.911.419-.064.41-.192.81-.367,1.523a33.183,33.183,0,0,1-2.284-2.7,2.777,2.777,0,0,1-.331-1.621,1.159,1.159,0,0,1,.7-.8,1.934,1.934,0,0,1,1.085.233c.13.049.2.273.282.428.277.559.647.454,1.057.21-.244-1.563-1.033-2.16-2.535-1.963a2.05,2.05,0,0,0-1.756,2.49c.06.469.2.927.3,1.342-1.176,1.238-1.432,2.427-.8,3.487a2.7,2.7,0,0,0,3.315.812c.6-.206,1.1-.414,1.695.03.189.141.573.022,1.025.022l-.934-1.275c.212-.87.74-1.7.459-2.636m-4.568,2.549c-.5-.65-.361-1.268.54-2.054l2.037,2.122c-1.172.655-2.068.6-2.578-.068" transform="translate(-733.18 -356.886)" fill="#fff"/>
    <path id="Path_8258" data-name="Path 8258" d="M484.279,411.851a28.4,28.4,0,0,0-3.405-.028v8.088c1.1,0,2.148.071,3.178-.017a2.48,2.48,0,0,0,2.44-2.472,20.27,20.27,0,0,0,0-3.157,2.43,2.43,0,0,0-2.209-2.414m1.1,5.356a1.623,1.623,0,0,1-1.744,1.714c-.517.032-1.037.005-1.735.005-.067-2.077-.052-4.05-.009-6.066.444-.045.74-.1,1.036-.1,1.893-.03,2.454.5,2.476,2.352.008.7.025,1.4-.024,2.1" transform="translate(-417.449 -357.471)" fill="#fff"/>
    <path id="Path_8259" data-name="Path 8259" d="M1152.555,411.143c-1.548-.1-2.777.565-2.971,1.957a16.308,16.308,0,0,0,0,4.411,2.54,2.54,0,0,0,2.84,2,2.681,2.681,0,0,0,2.622-2.316c.092-.6.079-1.22.112-1.816-.035-.671-.018-1.333-.113-1.979a2.551,2.551,0,0,0-2.493-2.262m1.458,5.667a1.712,1.712,0,0,1-1.743,1.633,1.653,1.653,0,0,1-1.73-1.625,22.039,22.039,0,0,1,0-3.026,1.611,1.611,0,0,1,1.72-1.616,1.681,1.681,0,0,1,1.751,1.607,14.521,14.521,0,0,1,.01,1.579,12.924,12.924,0,0,1-.008,1.448" transform="translate(-997.83 -356.906)" fill="#fff"/>
    <path id="Path_8260" data-name="Path 8260" d="M544.812,411.13a2.608,2.608,0,0,0-2.514,2.4,14.893,14.893,0,0,0-.011,1.7h0a15.3,15.3,0,0,0,.012,1.834,2.713,2.713,0,0,0,2.664,2.431,2.541,2.541,0,0,0,2.831-2.016,15.349,15.349,0,0,0-.008-4.408c-.219-1.425-1.412-2.053-2.977-1.948m2,5.817a1.6,1.6,0,0,1-1.587,1.476,1.522,1.522,0,0,1-1.752-1.257,16.709,16.709,0,0,1,.013-3.78,1.494,1.494,0,0,1,1.768-1.221,1.6,1.6,0,0,1,1.564,1.5,14.43,14.43,0,0,1,.013,1.709h-.006a12.15,12.15,0,0,1-.012,1.577" transform="translate(-470.744 -356.895)" fill="#fff"/>
    <path id="Path_8261" data-name="Path 8261" d="M663.933,413.237a2.72,2.72,0,0,0,.1-.48,1.9,1.9,0,0,0-.083-.389H658.87v8.023h5.109v-.972h-3.953v-2.511c1,0,1.879-.008,2.753,0,.6.008.784-.275.564-1h-3.316v-2.671Z" transform="translate(-571.969 -357.978)" fill="#fff"/>
    <path id="Path_8262" data-name="Path 8262" d="M1421.386,413.219a2.719,2.719,0,0,0,.13-.5,1.922,1.922,0,0,0-.087-.408h-5.061V420.4c1.767.009,3.442.071,5.145-.031-.172-.939-.172-.932-.852-.978a13.7,13.7,0,0,1-3.219-.158v-2.376c.958,0,1.827,0,2.695,0,.664,0,.841-.294.556-.993h-3.259v-2.643Z" transform="translate(-1229.557 -357.926)" fill="#fff"/>
    <path id="Path_8263" data-name="Path 8263" d="M1301.537,412.3c-.134-.358-.2-.774-.744-.771s-.61.412-.744.773q-1.14,3.078-2.271,6.16c-.132.359-.234.728-.392,1.222.367,0,.75.1.836-.017a18.825,18.825,0,0,0,1.016-1.7c.644,0,1.3.037,1.95-.009.877-.062,1.544.085,1.727,1.115.12.674.583.784,1.224.527a4.972,4.972,0,0,0-.142-.647q-1.222-3.328-2.459-6.651m-2.058,4.533,1.242-3.7a17.7,17.7,0,0,1,1.329,3.7Z" transform="translate(-1126.267 -357.249)" fill="#fff"/>
    <path id="Path_8264" data-name="Path 8264" d="M970.122,412.424a.951.951,0,0,0-.615-.529.855.855,0,0,0-.667.446c-.95,2.492-1.858,5-2.792,7.544,1.6.571,1.156-1.111,1.924-1.553a12.825,12.825,0,0,1,3.132.054c.555.666.286,1.968,1.794,1.527l-1.987-5.4c-.257-.7-.484-1.411-.789-2.089m-1.982,4.712,1.244-3.612a15.1,15.1,0,0,1,1.351,3.612Z" transform="translate(-838.63 -357.568)" fill="#fff"/>
    <path id="Path_8265" data-name="Path 8265" d="M1033,414.957c-.622-.2-1.279-.3-1.906-.489-.8-.244-1.1-.65-1.019-1.306a1.193,1.193,0,0,1,1.263-1.1,5.044,5.044,0,0,1,1.9.307c.708.271.826-.07.969-.592a3.991,3.991,0,0,0-3.537-.643,2.162,2.162,0,0,0-1.723,2.2,2,2,0,0,0,1.727,2.143c.465.121.946.186,1.414.3,1,.238,1.384.623,1.348,1.329-.035.686-.521,1.133-1.451,1.245a3.321,3.321,0,0,1-1.169-.065c-.542-.134-1.06-.361-1.639-.566l-.522.64a4.575,4.575,0,0,0,4.328.8,2.216,2.216,0,0,0,1.574-2.188,1.968,1.968,0,0,0-1.562-2.013" transform="translate(-892.989 -356.783)" fill="#fff"/>
    <path id="Path_8266" data-name="Path 8266" d="M1476.049,415.019a21.907,21.907,0,0,1-2.142-.6,1.316,1.316,0,0,1-.715-.955,1.69,1.69,0,0,1,.691-1.128,1.964,1.964,0,0,1,1.256-.216,13.242,13.242,0,0,1,1.818.465l.361-.723a3.877,3.877,0,0,0-3.065-.727,2.2,2.2,0,0,0-2.155,2.079c-.106,1.351.431,2.036,1.877,2.389.595.145,1.2.258,1.782.44a1.063,1.063,0,0,1,.82,1.066,1.085,1.085,0,0,1-.88,1.157,5.494,5.494,0,0,1-1.8.088,8.447,8.447,0,0,1-1.616-.552l-.53.718a4.741,4.741,0,0,0,4.271.743,2.043,2.043,0,0,0,1.594-1.871,1.968,1.968,0,0,0-1.564-2.374" transform="translate(-1277.632 -356.87)" fill="#fff"/>
    <path id="Path_8267" data-name="Path 8267" d="M1091.864,414.9c-.551-.144-1.118-.228-1.66-.4a1.1,1.1,0,0,1-.9-1.145,1.194,1.194,0,0,1,.935-1.139,2.832,2.832,0,0,1,1.166-.1,14.423,14.423,0,0,1,1.687.476l.4-.717a3.8,3.8,0,0,0-3.05-.749,2.2,2.2,0,0,0-2.183,2.187c-.059,1.3.46,1.933,1.854,2.279a10.067,10.067,0,0,1,1.893.508,1.6,1.6,0,0,1,.708.983.931.931,0,0,1-.708,1.118,5.645,5.645,0,0,1-1.922.15,7.6,7.6,0,0,1-1.628-.553l-.518.658a4.521,4.521,0,0,0,3.839.9c1.359-.307,1.982-.991,2.01-2.209.029-1.26-.5-1.886-1.921-2.258" transform="translate(-944.443 -356.875)" fill="#fff"/>
    <path id="Path_8268" data-name="Path 8268" d="M1213.66,412.25a1.654,1.654,0,0,1,1.778.552,1.94,1.94,0,0,1,.232.317c.285.49.683.456,1.126.269a2.517,2.517,0,0,0-2.623-2.226,2.428,2.428,0,0,0-2.727,2.115,16.121,16.121,0,0,0,.015,4.164,2.509,2.509,0,0,0,2.641,2.1,2.662,2.662,0,0,0,2.675-2.224c-.6-.284-.94,0-1.293.481a1.7,1.7,0,0,1-3.048-.988c-.043-1-.042-2.015.007-3.019a1.594,1.594,0,0,1,1.217-1.542" transform="translate(-1051.552 -356.932)" fill="#fff"/>
    <path id="Path_8269" data-name="Path 8269" d="M603.383,412.252c-.484.953-.944,1.917-1.533,3.118-.595-1.223-1.072-2.156-1.5-3.11-.286-.632-.687-.854-1.441-.51.649,1.262,1.334,2.486,1.907,3.76a7.272,7.272,0,0,1,.493,2c.1.719.072,1.455.1,2.137.593.159.957.133.993-.438a6.555,6.555,0,0,0,.008-1.053,5.244,5.244,0,0,1,.777-3.259c.593-1.018,1.082-2.1,1.631-3.179-1.078-.128-1.092-.135-1.43.531" transform="translate(-519.913 -357.303)" fill="#fff"/>
    <path id="Path_8270" data-name="Path 8270" d="M1356.4,411.5l.095.914,2.276.136v6.969c.829.269,1.008-.066,1-.673-.012-1.665-.008-3.331,0-5,0-.423.047-.846.074-1.3l2.221-.155v-.915c-1.9-.019-3.755-.054-5.67.023" transform="translate(-1177.5 -357.186)" fill="#fff"/>
    <path id="Path_8271" data-name="Path 8271" d="M1273.229,411.744v7.891c.657.29,1.015.141,1.018-.535.01-2.284.015-4.569-.008-6.853-.008-.737-.466-.692-1.01-.5" transform="translate(-1105.297 -357.334)" fill="#fff"/>
  </g>
</svg>
