<svg id="Group_18782" data-name="Group 18782" xmlns="http://www.w3.org/2000/svg" xmlns:xlink="http://www.w3.org/1999/xlink" width="102.233" height="40" viewBox="0 0 102.233 40">
  <defs>
    <clipPath id="clip-path">
      <rect id="Rectangle_5516" data-name="Rectangle 5516" width="102.233" height="40" fill="none"/>
    </clipPath>
  </defs>
  <g id="Group_18782-2" data-name="Group 18782" clip-path="url(#clip-path)">
    <path id="Path_8251" data-name="Path 8251" d="M23.721.552c0-.164-.034-.327-.058-.552a9.231,9.231,0,0,0-2.575,2.154A10.238,10.238,0,0,0,18.61,8.967q.014,11.495,0,22.99a7.958,7.958,0,0,1-.1,1.408,5.741,5.741,0,0,1-1.774,3.23L3.487,28.556a5.225,5.225,0,0,1,1.029-2.114A8.755,8.755,0,0,1,7.094,24.2c1.033-.591,2.078-1.162,3.114-1.749A9.111,9.111,0,0,0,14.9,14.56c-.3.157-.5.253-.689.359-3.234,1.811-6.458,3.637-9.7,5.429a8.209,8.209,0,0,0-4.3,5.731,6.544,6.544,0,0,0,1.042,5.635A10.331,10.331,0,0,0,3.99,34.185c1.965,1.221,3.944,2.421,5.948,3.576a27.429,27.429,0,0,0,3.194,1.589,7.057,7.057,0,0,0,7.115-.688,7.3,7.3,0,0,0,3.46-6.087c.04-10.674.017-21.349.015-32.024" transform="translate(0)" fill="#2d3691"/>
    <path id="Path_8252" data-name="Path 8252" d="M.459,90.363c0,.136.026.272.054.535.3-.513.532-.894.746-1.287a7.138,7.138,0,0,1,2.4-2.587c.487-.32.981-.633,1.488-.92,1.815-1.029,3.644-2.032,5.454-3.071a9.154,9.154,0,0,0,4.429-5.764,7.9,7.9,0,0,0,.278-2.21c-.189.078-.273.1-.347.145-3.528,2.01-7.076,3.986-10.574,6.047A7.6,7.6,0,0,0,.7,86.408a19.079,19.079,0,0,0-.241,3.955" transform="translate(-0.428 -69.999)" fill="#2d3691"/>
    <path id="Path_8253" data-name="Path 8253" d="M485.359,160.921c-1.746-.1-3.5-.072-5.252-.051-.949.012-1.373.473-1.455,1.42-.015.178-.008.359-.008.539q0,2.459,0,4.918c0,1.639-.005,3.278,0,4.918a7.053,7.053,0,0,0,.1,1,1.1,1.1,0,0,0,.934.935,2.3,2.3,0,0,0,.535.058c1.661-.007,3.325.036,4.983-.047a4.978,4.978,0,0,0,4.678-3.382,9.394,9.394,0,0,0,.006-6.915,4.917,4.917,0,0,0-4.522-3.393m1.812,9.6a2.778,2.778,0,0,1-2.535,1.921c-1.026.063-2.059.013-3.082.013-.152-.488-.192-8.513-.036-9.426a20.083,20.083,0,0,1,3.45.139,2.823,2.823,0,0,1,2.3,1.947,7.758,7.758,0,0,1-.094,5.406" transform="translate(-446.372 -150.006)" fill="#1a1a1a"/>
    <path id="Path_8254" data-name="Path 8254" d="M914.615,170.557a1.083,1.083,0,0,0-.214-1.4c-.177-.172-.371-.326-.56-.485q-.615-.514-1.232-1.024c.281-.6.562-1.134.784-1.693a4.425,4.425,0,0,0,.3-1.167,1.024,1.024,0,0,0-.767-1.06.939.939,0,0,0-1.158.445c-.208.344-.357.723-.532,1.087l-.39.811-2.335-2.716c.239-.166.428-.283.6-.421.456-.363.928-.711,1.352-1.109a2.428,2.428,0,0,0,.764-1.537,2.855,2.855,0,0,0-1.732-3.057,4.792,4.792,0,0,0-4.352.13,2.818,2.818,0,0,0-1.54,2.313,2.985,2.985,0,0,0,.474,1.927c.28.455.584.9.888,1.36-.526.347-1.042.661-1.528,1.016a3.8,3.8,0,0,0-1.494,1.944,3.7,3.7,0,0,0,2.067,4.6,6.2,6.2,0,0,0,6.448-.6c.2-.139.387-.289.594-.445.5.395.972.778,1.459,1.137a3.033,3.033,0,0,0,.754.433,1.14,1.14,0,0,0,1.352-.481M906.506,158.8a1.665,1.665,0,0,1,1.893-.117,1.337,1.337,0,0,1,.255,2.136,14.9,14.9,0,0,1-1.375,1.1,5.6,5.6,0,0,1-1.159-1.555,1.234,1.234,0,0,1,.386-1.561m-.62,10.271a2.205,2.205,0,0,1-.779-3.781c.335-.288.709-.53,1.094-.814l3.085,3.427a3.142,3.142,0,0,1-3.4,1.168" transform="translate(-840.961 -146.2)" fill="#1a1a1a"/>
    <path id="Path_8255" data-name="Path 8255" d="M1338.479,171.363a1.276,1.276,0,0,0,.861-1.491,6.08,6.08,0,0,0-.362-1.152q-1.98-4.936-3.978-9.866c-.1-.249-.229-.487-.349-.728a1.986,1.986,0,0,0-3.471.021c-.147.3-.289.609-.413.921-.448,1.126-.888,2.255-1.332,3.383-.856,2.171-1.721,4.339-2.563,6.516a4.292,4.292,0,0,0-.3,1.23,1.256,1.256,0,0,0,1,1.2,1.1,1.1,0,0,0,1.357-.6,14.012,14.012,0,0,0,.557-1.3c.206-.519.4-1.044.6-1.57h5.688c.131.344.245.659.372.968.248.6.476,1.213.763,1.8a1.22,1.22,0,0,0,1.576.67m-7.64-5.607,1.969-5.483.17,0,2.008,5.485Z" transform="translate(-1237.132 -146.525)" fill="#1a1a1a"/>
    <path id="Path_8256" data-name="Path 8256" d="M721.052,411.684v2.888a.9.9,0,0,1-.436-.368c-.473-.737-.945-1.475-1.405-2.22-.156-.252-.318-.44-.683-.289v4.086h.436c.151-.957-.047-1.913.135-2.971.206.3.337.478.457.664.438.68.878,1.358,1.305,2.044a.467.467,0,0,0,.715.2c0-1.252.007-2.53,0-3.807,0-.36-.244-.277-.519-.231" transform="translate(-670.085 -383.888)" fill="#1a1a1a"/>
    <path id="Path_8257" data-name="Path 8257" d="M847.59,413.312c-.244-.074-.42-.081-.466.214-.033.21-.1.414-.188.779a16.968,16.968,0,0,1-1.167-1.379,1.421,1.421,0,0,1-.169-.828.593.593,0,0,1,.358-.411.988.988,0,0,1,.554.119c.067.025.1.14.144.219.142.286.331.232.541.107-.125-.8-.528-1.1-1.3-1a1.048,1.048,0,0,0-.9,1.273c.031.24.1.474.151.686-.6.633-.732,1.241-.407,1.782a1.381,1.381,0,0,0,1.694.415c.305-.105.564-.212.866.016.1.072.293.011.524.011l-.478-.652c.108-.445.379-.868.235-1.348m-2.335,1.3c-.255-.332-.185-.648.276-1.05l1.041,1.085c-.6.335-1.057.306-1.318-.035" transform="translate(-787.634 -383.393)" fill="#1a1a1a"/>
    <path id="Path_8258" data-name="Path 8258" d="M482.615,411.818a14.5,14.5,0,0,0-1.741-.014v4.134c.565,0,1.1.036,1.625-.009a1.268,1.268,0,0,0,1.247-1.263,10.354,10.354,0,0,0,0-1.614,1.242,1.242,0,0,0-1.129-1.234m.561,2.738a.83.83,0,0,1-.892.876c-.264.016-.53,0-.887,0-.034-1.062-.027-2.07,0-3.1.227-.023.378-.049.53-.052.968-.015,1.254.256,1.266,1.2,0,.357.013.716-.012,1.071" transform="translate(-448.453 -384.02)" fill="#1a1a1a"/>
    <path id="Path_8259" data-name="Path 8259" d="M1151.03,411.138c-.791-.051-1.419.289-1.519,1a8.341,8.341,0,0,0,0,2.255,1.3,1.3,0,0,0,1.452,1.025,1.371,1.371,0,0,0,1.34-1.184c.047-.308.04-.623.057-.928-.018-.343-.009-.682-.058-1.011a1.3,1.3,0,0,0-1.274-1.156m.745,2.9a.875.875,0,0,1-.891.835.845.845,0,0,1-.884-.831,11.24,11.24,0,0,1,0-1.547.823.823,0,0,1,.879-.826.859.859,0,0,1,.895.822,7.476,7.476,0,0,1,.005.807,6.62,6.62,0,0,1,0,.74" transform="translate(-1071.94 -383.414)" fill="#1a1a1a"/>
    <path id="Path_8260" data-name="Path 8260" d="M543.567,411.125a1.333,1.333,0,0,0-1.285,1.229,7.611,7.611,0,0,0-.005.871h0a7.818,7.818,0,0,0,.006.937,1.387,1.387,0,0,0,1.362,1.243,1.3,1.3,0,0,0,1.447-1.03,7.839,7.839,0,0,0,0-2.253c-.112-.728-.722-1.049-1.522-1m1.024,2.973a.819.819,0,0,1-.811.754.778.778,0,0,1-.9-.642,8.542,8.542,0,0,1,.007-1.932.764.764,0,0,1,.9-.624.819.819,0,0,1,.8.765,7.394,7.394,0,0,1,.006.874h0a6.227,6.227,0,0,1-.006.806" transform="translate(-505.706 -383.402)" fill="#1a1a1a"/>
    <path id="Path_8261" data-name="Path 8261" d="M661.458,412.812a1.385,1.385,0,0,0,.052-.245.968.968,0,0,0-.042-.2h-2.6v4.1h2.612v-.5h-2.021v-1.284c.513,0,.96,0,1.407,0,.309,0,.4-.141.288-.512h-1.7v-1.365Z" transform="translate(-614.449 -384.565)" fill="#1a1a1a"/>
    <path id="Path_8262" data-name="Path 8262" d="M1418.933,412.773a1.376,1.376,0,0,0,.066-.258.973.973,0,0,0-.044-.208h-2.587v4.136c.9,0,1.76.036,2.63-.016-.088-.48-.088-.476-.435-.5a7.006,7.006,0,0,1-1.646-.081v-1.215h1.378c.339,0,.43-.15.284-.507h-1.666v-1.351Z" transform="translate(-1320.877 -384.509)" fill="#1a1a1a"/>
    <path id="Path_8263" data-name="Path 8263" d="M1299.508,411.921c-.068-.183-.1-.4-.38-.394s-.312.21-.38.4q-.583,1.574-1.161,3.149c-.067.183-.12.372-.2.625.188,0,.383.051.427-.009a9.59,9.59,0,0,0,.519-.87c.329,0,.665.019,1,0,.448-.032.789.044.883.57.061.345.3.4.626.269a2.572,2.572,0,0,0-.073-.331q-.624-1.7-1.257-3.4m-1.052,2.317.635-1.89a9.055,9.055,0,0,1,.68,1.89Z" transform="translate(-1209.916 -383.782)" fill="#1a1a1a"/>
    <path id="Path_8264" data-name="Path 8264" d="M968.13,412.165a.486.486,0,0,0-.314-.27.438.438,0,0,0-.341.228c-.485,1.274-.95,2.556-1.427,3.856.817.292.591-.568.983-.794a6.554,6.554,0,0,1,1.6.027c.284.341.146,1.006.917.78l-1.016-2.76c-.131-.357-.248-.721-.4-1.068m-1.013,2.408.636-1.846a7.718,7.718,0,0,1,.69,1.846Z" transform="translate(-900.916 -384.124)" fill="#1a1a1a"/>
    <path id="Path_8265" data-name="Path 8265" d="M1030.883,413.018c-.318-.1-.654-.152-.974-.25-.41-.125-.56-.332-.521-.667a.61.61,0,0,1,.646-.562,2.579,2.579,0,0,1,.973.157c.362.139.422-.036.5-.3a2.04,2.04,0,0,0-1.808-.328,1.105,1.105,0,0,0-.881,1.125,1.02,1.02,0,0,0,.883,1.1c.238.062.483.095.723.152.512.122.707.319.689.679s-.266.579-.741.636a1.7,1.7,0,0,1-.6-.033c-.277-.068-.542-.184-.838-.289l-.267.327a2.338,2.338,0,0,0,2.212.409,1.133,1.133,0,0,0,.8-1.119,1.006,1.006,0,0,0-.8-1.029" transform="translate(-959.312 -383.282)" fill="#1a1a1a"/>
    <path id="Path_8266" data-name="Path 8266" d="M1473.946,413.1a11.162,11.162,0,0,1-1.095-.306.673.673,0,0,1-.366-.488.864.864,0,0,1,.353-.577,1,1,0,0,1,.642-.11,6.772,6.772,0,0,1,.929.238l.184-.37a1.982,1.982,0,0,0-1.567-.372,1.123,1.123,0,0,0-1.1,1.063c-.054.69.22,1.041.959,1.221.3.074.613.132.911.225a.544.544,0,0,1,.419.545.555.555,0,0,1-.45.591,2.807,2.807,0,0,1-.92.045,4.307,4.307,0,0,1-.826-.282l-.271.367a2.424,2.424,0,0,0,2.183.38,1.044,1.044,0,0,0,.814-.956,1.006,1.006,0,0,0-.8-1.214" transform="translate(-1372.523 -383.375)" fill="#1a1a1a"/>
    <path id="Path_8267" data-name="Path 8267" d="M1089.944,413.043c-.281-.073-.572-.116-.849-.2a.564.564,0,0,1-.459-.585.611.611,0,0,1,.478-.582,1.447,1.447,0,0,1,.6-.049,7.369,7.369,0,0,1,.862.243l.2-.366a1.94,1.94,0,0,0-1.559-.383,1.123,1.123,0,0,0-1.116,1.118c-.03.663.235.988.948,1.165a5.146,5.146,0,0,1,.967.26.819.819,0,0,1,.362.5.476.476,0,0,1-.362.571,2.886,2.886,0,0,1-.983.077,3.892,3.892,0,0,1-.832-.283l-.265.337a2.311,2.311,0,0,0,1.962.461c.694-.157,1.013-.507,1.027-1.129.015-.644-.254-.964-.982-1.154" transform="translate(-1014.587 -383.381)" fill="#1a1a1a"/>
    <path id="Path_8268" data-name="Path 8268" d="M1212.516,411.718a.846.846,0,0,1,.909.282.983.983,0,0,1,.119.162c.146.25.349.233.575.138a1.286,1.286,0,0,0-1.341-1.138,1.241,1.241,0,0,0-1.394,1.081,8.237,8.237,0,0,0,.008,2.128,1.283,1.283,0,0,0,1.35,1.074,1.361,1.361,0,0,0,1.368-1.137c-.307-.145-.48,0-.661.246a.869.869,0,0,1-1.558-.505c-.022-.514-.021-1.03,0-1.543a.815.815,0,0,1,.622-.789" transform="translate(-1129.651 -383.442)" fill="#1a1a1a"/>
    <path id="Path_8269" data-name="Path 8269" d="M601.195,411.928c-.247.487-.483.98-.784,1.594-.3-.625-.548-1.1-.769-1.589-.146-.323-.351-.437-.737-.261.331.645.682,1.271.975,1.922a3.717,3.717,0,0,1,.252,1.024c.049.368.037.744.05,1.092.3.081.49.068.507-.224a3.346,3.346,0,0,0,0-.538,2.681,2.681,0,0,1,.4-1.666c.3-.52.553-1.072.834-1.625-.551-.065-.558-.069-.731.271" transform="translate(-558.528 -383.84)" fill="#1a1a1a"/>
    <path id="Path_8270" data-name="Path 8270" d="M1356.4,411.479c.021.211.034.332.048.467l1.164.07v3.563c.424.137.515-.034.513-.344-.006-.851,0-1.7,0-2.554,0-.216.024-.432.038-.666l1.135-.079v-.468c-.973-.01-1.919-.028-2.9.012" transform="translate(-1264.954 -383.714)" fill="#1a1a1a"/>
    <path id="Path_8271" data-name="Path 8271" d="M1273.229,411.686v4.034c.336.148.519.072.52-.273,0-1.168.008-2.335,0-3.5,0-.377-.238-.354-.516-.257" transform="translate(-1187.388 -383.874)" fill="#1a1a1a"/>
  </g>
</svg>
