<svg xmlns="http://www.w3.org/2000/svg" width="16.032" height="16" viewBox="0 0 16.032 16">
  <g id="svgexport-46" transform="translate(0.028 -0.042)">
    <path id="Path_1566" data-name="Path 1566" d="M13.025,29.826a7.625,7.625,0,0,0-.551-.551c-.088-.088-.188-.175-.276-.276l-.8-.8a1.639,1.639,0,0,0-1.152-.526,1.59,1.59,0,0,0-1.152.526l-.25.25c-.188.188-.388.376-.576.589a5.535,5.535,0,0,1-1.09-.714,9.78,9.78,0,0,1-1.365-1.315.594.594,0,0,0-.889.789A12.01,12.01,0,0,0,6.438,29.25H6.45a6.662,6.662,0,0,0,1.591.977.046.046,0,0,0,.038.013.794.794,0,0,0,.864-.2l.025-.025c.225-.25.463-.488.714-.726.088-.088.175-.163.25-.25a.524.524,0,0,1,.326-.175.527.527,0,0,1,.313.175l.8.8c.1.1.2.188.288.288.188.175.351.351.526.526a.012.012,0,0,0,.013.013.371.371,0,0,1-.013.6l-1,1a1.144,1.144,0,0,1-.751.351,4.113,4.113,0,0,1-1.766-.313A12.022,12.022,0,0,1,5.2,30.226a13.122,13.122,0,0,1-3.369-4.3A6.388,6.388,0,0,1,1.153,23.7a1.294,1.294,0,0,1,.4-1.09c.225-.188.413-.388.6-.576a4.632,4.632,0,0,1,.351-.351h0a.4.4,0,0,1,.651-.013L4.784,23.3l.013.013a.382.382,0,0,1,.15.276.51.51,0,0,1-.163.313l-1,1a.593.593,0,0,0,.839.839l1-1a1.629,1.629,0,0,0,.513-1.165,1.5,1.5,0,0,0-.513-1.115L4,20.846a1.572,1.572,0,0,0-2.3-.013c-.138.125-.263.263-.388.388-.175.175-.338.351-.513.5l-.025.025a2.469,2.469,0,0,0-.789,2.029,7.3,7.3,0,0,0,.789,2.655h0a14.149,14.149,0,0,0,3.669,4.684,12.635,12.635,0,0,0,3.807,2.279,5.7,5.7,0,0,0,1.954.4,2.618,2.618,0,0,0,.313-.013h0A2.4,2.4,0,0,0,12,33.094l1-1,.013-.013a1.545,1.545,0,0,0,.013-2.254Zm0,0" transform="translate(0 -17.754)" fill="#fff"/>
    <path id="Path_1567" data-name="Path 1567" d="M63.934,30.533a5.87,5.87,0,0,0-4.8-4.784.6.6,0,0,0-.2,1.177,4.664,4.664,0,0,1,2.517,1.3,4.483,4.483,0,0,1,1.315,2.5.592.592,0,0,0,.589.488.276.276,0,0,0,.1-.013.583.583,0,0,0,.476-.676Zm0,0" transform="translate(-51.147 -22.481)" fill="#fff"/>
    <path id="Path_1568" data-name="Path 1568" d="M68.278,7.9A9.634,9.634,0,0,0,60.438.049a.6.6,0,0,0-.689.488.6.6,0,0,0,.488.689,8.4,8.4,0,0,1,4.534,2.342A8.314,8.314,0,0,1,67.113,8.1a.592.592,0,0,0,.589.488.276.276,0,0,0,.1-.013.577.577,0,0,0,.476-.676Zm0,0" transform="translate(-52.285)" fill="#fff"/>
  </g>
</svg>
